<svg xmlns="http://www.w3.org/2000/svg" fill="none" viewBox="0 0 512 360"><path fill="#306FC5" d="M503.916 321.661c0 16.188-13.122 29.311-29.309 29.311H37.393c-16.188 0-29.30902-13.124-29.30902-29.311V38.336c0-16.188 13.12202-29.31 29.30902-29.31h437.212c16.188 0 29.309 13.123 29.309 29.31v283.326l.002-.001z"/><path fill="#202121" d="M87.728 127.005l7.406 18.855H80.318l7.41-18.855zm.001-16.168c-6.647 0-12.618 4.067-15.05 10.255l-7.409 18.855c-1.955 4.977-1.325 10.6 1.687 15.019 3.012 4.419 8.013 7.063 13.362 7.063h14.816c5.347 0 10.349-2.644 13.361-7.062 3.012-4.419 3.643-10.042 1.688-15.018l-7.406-18.855c-2.432-6.188-8.402-10.257-15.049-10.257zM187.387 209.156l12.121 14.143-12.795 14.144h-27.607V227.34h24.916v-9.429h-24.916v-8.755h28.281zm0-16.168h-28.281c-8.929 0-16.168 7.239-16.168 16.168v8.755c0 1.639.245 3.223.698 4.715-.454 1.492-.698 3.075-.698 4.715v10.103c0 8.929 7.239 16.168 16.168 16.168h27.607c4.569 0 8.925-1.934 11.99-5.323l12.795-14.144c5.46-6.036 5.582-15.189.287-21.367l-12.121-14.143c-3.072-3.584-7.556-5.647-12.277-5.647zM353.71 127.005l7.409 18.855h-15.49l8.081-18.855zm-.001-16.168c-6.46 0-12.31 3.847-14.86 9.799l-8.081 18.855c-2.141 4.996-1.63 10.733 1.364 15.269 2.991 4.538 8.063 7.268 13.497 7.268h15.49c5.347 0 10.35-2.644 13.362-7.063 3.012-4.419 3.643-10.042 1.688-15.019l-7.409-18.855c-2.399-6.103-8.245-10.153-14.802-10.253-.083.001-.166-.001-.249-.001z"/><path fill="#202121" d="M231.158 204.444v38.382l-17.51-19.526 17.51-18.856zm.003-16.171c-4.411 0-8.731 1.808-11.851 5.167l-17.51 18.857c-5.687 6.125-5.77 15.573-.19 21.797l17.509 19.526c3.128 3.487 7.534 5.374 12.041 5.374 1.938 0 3.893-.349 5.775-1.069 6.257-2.394 10.39-8.4 10.39-15.1v-38.382c0-6.648-4.07-12.619-10.258-15.05-1.919-.752-3.922-1.12-5.906-1.12z"/><path fill="#202121" d="M256.742 209.156c4.042 0 6.738 2.023 7.412 6.063 0 4.039-2.695 6.058-6.735 6.058h-14.815v-12.121h14.138zm0-16.168h-14.138c-8.929 0-16.168 7.239-16.168 16.168v12.121c0 8.929 7.239 16.168 16.168 16.168h14.815c13.27 0 22.903-9.348 22.903-22.226 0-.891-.073-1.78-.22-2.659-1.953-11.707-11.341-19.572-23.36-19.572z"/><path fill="#202121" d="M305.902 209.831c2.018 0 4.041 0 5.384.674 1.347.675 2.697 2.023 2.022 4.715 0 2.017-.675 4.039-2.022 4.714-1.343.674-3.366.674-5.384.674h-13.469v-10.776l13.469-.001zm0-16.168h-13.469c-8.929 0-16.168 7.239-16.168 16.168v10.776c0 8.929 7.239 16.168 16.168 16.168h13.469c3.133 0 7.869 0 12.633-2.39 6.246-3.128 10.306-9.658 10.874-17.31 1.325-8.747-2.874-17.018-10.882-21.029-4.756-2.383-9.491-2.383-12.625-2.383zM438.557 109.496v65.991H406.91l-6.063-10.099v10.099h-39.055l-4.04-10.771h-9.425l-4.04 10.771h-20.203c-8.082 0-14.139-2.017-18.18-4.04v4.04H257.42v-14.813c0-2.021 0-2.021-1.345-2.021h-1.348v17.509H161.125v-8.08l-3.366 8.08h-19.526l-3.371-8.08v8.08H95.809l-4.04-10.774h-8.754l-4.041 10.099-.244.675H43.672l.285-.675 15.486-34.342 13.469-31.648h29.628l3.367 8.081v-8.081h34.344l7.406 16.835 7.411-16.835h108.414c5.388 0 9.427 1.348 12.794 4.041v-4.041h30.302v4.041c5.385-2.693 11.448-4.041 18.855-4.041h43.095l4.042 8.081v-8.081h31.646l4.039 8.081v-8.081h30.303l-.001-.001zm-113.802 57.237h12.795l4.04-10.771h23.57l4.04 10.101h11.447v.028h11.376v-6.161l.07.071v-29.629l21.547 35.691h14.817V119.6h-11.452v32.994L397.48 119.6h-16.832v45.115L361.791 119.6h-16.835l-15.487 37.035h-4.714c-3.365 0-6.057-.674-8.081-2.697-2.69-2.693-3.365-6.059-3.365-11.447 0-4.713 1.347-8.753 3.365-10.771 2.698-2.023 4.716-2.695 8.756-2.695h10.776v-10.1H325.43c-7.406 0-13.469 1.343-16.833 5.386-4.715 5.385-6.059 12.123-6.059 18.857 0 8.753 2.018 14.14 6.059 18.18 4.037 4.041 10.775 5.385 16.158 5.385zm-39.054-.67h11.448v-47.137h-11.448v47.137zm-51.852 0h11.445v-16.835h12.123c3.174 0 5.09.011 6.098.664.7.298 1.344.718 1.98 1.354 2.023 2.693 2.023 6.734 2.023 9.427v5.389h10.099v-9.427c0-.41-.011-.788-.025-1.159 0-.02.002-.037.002-.058 0-.037-.005-.069-.005-.107-.004-.064-.008-.127-.011-.191-.054-3.687-1.095-6.202-2.386-7.893-.186-.259-.404-.528-.659-.798-.019-.015-.043-.026-.06-.041-2.016-2.097-4.261-2.549-4.261-2.549 3.307-1.326 7.907-5.258 8.063-12.424-.077-5.203-2.07-8.49-5.369-10.471-3.368-2.02-7.411-2.02-13.467-2.02H233.85l-.001 47.139zm-45.114.67h37.709v-10.098H200.18v-9.43h25.589v-9.426H200.18v-8.754h26.264v-10.1h-37.709v47.808zm-40.621-14.788l-6.101-13.853-8.496-18.491h-.025l-.317-.675h-17.84v45.115l-18.853-45.116H79.648l-19.922 47.137h11.836l4.715-10.101h22.898l4.714 10.101h22.893v-37.038l16.16 37.038h9.923l15.665-35.511v.018l.675-1.545v37.038H179.98v-47.137h-18.183l-13.467 32.321-.216.699zm290.443-58.617h-30.304c-.686 0-1.362.043-2.025.125-.662-.083-1.334-.125-2.014-.125h-31.646c-.687 0-1.364.043-2.026.125-.663-.082-1.337-.125-2.016-.125H325.43c-4.501 0-8.733.395-12.74 1.195-1.886-.771-3.95-1.195-6.115-1.195h-30.302c-1.687 0-3.315.259-4.844.738-2.53-.49-5.182-.738-7.949-.738H155.066c-2.631 0-5.162.639-7.408 1.797-2.246-1.159-4.777-1.797-7.408-1.797h-34.344c-.57 0-1.133.029-1.688.087-.554-.058-1.115-.087-1.679-.087H72.912c-6.482 0-12.339 3.872-14.877 9.837l-13.401 31.491-15.415 34.185c-.056.122-.109.247-.162.371l-.285.675c-2.103 4.992-1.566 10.706 1.43 15.219 2.995 4.513 8.053 7.225 13.47 7.225H78.73c3.091 0 6.033-.878 8.539-2.439 2.508 1.56 5.45 2.439 8.539 2.439h39.052c.57 0 1.134-.029 1.689-.087.554.058 1.115.087 1.68.087h19.526c.565 0 1.125-.029 1.678-.087.555.058 1.118.087 1.687.087H254.722c1.613 0 3.168-.236 4.637-.675h46.54c2.165 0 4.23-.426 6.117-1.196 3.897.791 7.946 1.196 12.063 1.196h20.203c3.178 0 6.199-.929 8.753-2.574 2.553 1.644 5.575 2.574 8.753 2.574h39.055c1.039 0 2.054-.098 3.039-.286.986.189 2 .286 3.025.286H438.554c8.929 0 16.168-7.239 16.168-16.168v-65.991c.003-8.929-7.236-16.169-16.165-16.169z"/><path fill="#202121" d="M258.764 129.026c2.019 0 4.04 0 5.388.672.856.43 1.711 1.139 2.045 2.293l.005-.001c.016.055.014.102.026.156.046.196.085.397.101.614.377 2.374-.323 4.111-.933 5.078-.151.273-.331.511-.526.721-.091.105-.158.177-.158.177l-.003-.009c-.171.157-.354.298-.556.4-1.348.675-3.37.675-5.388.675h-13.469v-10.776h13.468zm0-16.169h-13.469c-8.929 0-16.168 7.239-16.168 16.168v10.776c0 8.929 7.239 16.168 16.168 16.168h13.469c3.129 0 7.86 0 12.624-2.384.018-.01.036-.018.054-.027 1.427-.721 2.772-1.643 4.003-2.742.358-.315.704-.648 1.036-.996 0 0 .181-.19.439-.48.898-.997 1.691-2.078 2.366-3.223 2.738-4.52 3.829-9.931 3.094-15.341-.063-.545-.15-1.09-.261-1.642-.1-.553-.226-1.093-.383-1.634-.094-.327-.198-.648-.31-.963-1.687-4.888-5.209-8.871-10.006-11.284-.019-.011-.039-.02-.058-.029-4.754-2.367-9.475-2.367-12.598-2.367zM464.789 188.283v2.023h.03v30.301c2.02 3.366 3.365 8.081 3.365 12.795 0 .44-.018.872-.04 1.306l.04.038c-.022.235-.055.467-.083.698-.581 7.854-4.488 14.436-10.688 18.157-4.039 2.696-10.104 3.368-16.162 3.368h-28.957V252.925c-3.367 2.694-9.424 4.043-15.488 4.043h-91.578V241.479c0-2.02 0-2.02-2.022-2.02h-1.343v17.509h-30.304v-18.183c-4.713 2.023-10.776 2.023-15.486 2.023h-3.37v15.488H214.992l-8.44-9.74-9.738 9.74h-59.257v-68.015H198.159l8.755 10.102 9.429-10.102h40.398c4.042 0 12.126.675 15.491 4.039v-4.039h36.363c3.364 0 10.776.675 14.815 4.039v-4.039h55.214v4.039c2.698-2.69 8.755-4.039 13.469-4.039h30.975v4.039s5.095-4.039 9.295-4.039c4.202.002 32.426.002 32.426.002zm-44.41 58.585h21.542c6.738 0 11.454-2.02 14.144-4.717 2.693-2.69 4.039-6.057 4.039-10.099 0-.874-.087-1.661-.207-2.417-1.382-7.209-7.557-9.972-9.421-10.646-2.037-.716-4.262-1.079-7.206-1.079h-6.057c-1.348 0-2.696 0-4.04-.675-2.023-.668-2.698-1.342-2.698-3.363 0-1.345.675-2.694 1.352-3.368 1.346-.674 2.69-.674 4.713-.674h20.875v-11.446h-22.222c-1.248 0-2.39.097-3.471.246-9.032 1.717-12.691 7.497-12.691 13.898 0 14.812 12.797 14.139 23.568 14.812 2.02 0 3.365.675 4.039 1.347.673.675 1.347 2.016 1.347 3.365 0 1.348-.675 2.693-1.347 3.367-1.344 1.348-2.694 1.348-4.716 1.348H420.38v10.101h-.001zm-43.773 0h21.55c11.445 0 17.507-4.717 17.507-14.816 0-4.713-1.347-8.08-3.368-10.101-2.694-2.694-6.734-4.041-12.794-4.041h-6.061c-1.346 0-2.69 0-4.04-.675-1.347-.668-2.69-1.342-2.69-3.363 0-1.345 0-2.694 1.343-3.368 1.347-.674 2.697-.674 4.716-.674h20.872v-11.446h-22.22c-12.123 0-16.162 7.408-16.162 14.143 0 14.812 12.794 14.139 23.568 14.812 2.019 0 3.368.675 4.043 1.347.674.675 1.343 2.016 1.343 3.365 0 1.348-.669 2.693-1.343 3.367-1.348 1.348-2.699 1.348-4.715 1.348h-21.55v10.102h.001zm-44.44 0h37.709v-10.1H343.61v-9.428h25.589v-9.429H343.61v-8.755h26.265v-10.098h-37.709v47.81zm-51.851 0h11.446v-17.506h12.12c4.039 0 6.736 0 8.079 2.016 2.023 2.023 2.023 6.734 2.023 9.432v6.059h11.446v-9.425c0-4.042-.675-6.74-2.019-8.756-.674-1.347-2.694-2.698-6.062-4.04 3.368-1.348 8.081-5.389 8.081-12.795 0-5.387-2.693-8.755-6.058-10.777-3.372-2.018-8.085-2.018-13.469-2.018h-25.587v47.81zm-73.069-31.295l-2.514-2.742-11.958-13.097h-43.77v47.135H192.1l14.814-15.49.628.724.045-.05 12.882 14.816h22.133v-17.506h13.469c10.097 0 19.525-2.696 19.525-16.163 0-1.762-.205-3.313-.558-4.709-2.938-7.047-10.695-8.757-17.622-8.757h-35.688l-14.142 15.486-.34.353zm257.543-43.458h-32.425c-1.754 0-3.457.205-5.084.554-1.343-.361-2.754-.554-4.21-.554h-30.975c-1.562 0-4.693.109-8.405.81-1.592-.525-3.296-.81-5.064-.81H323.41c-1.866 0-3.658.316-5.325.898-3.944-.752-7.408-.898-9.49-.898h-36.363c-1.831 0-3.593.305-5.234.867-3.602-.652-7.149-.867-10.257-.867h-40.398c-3.27 0-6.433.991-9.092 2.798-2.655-1.805-5.816-2.798-9.092-2.798H137.557c-8.929 0-16.168 7.239-16.168 16.168v68.015c0 8.929 7.239 16.168 16.168 16.168h59.257c3.264 0 6.426-.987 9.089-2.796 2.655 1.804 5.815 2.796 9.089 2.796H252.703c3.315 0 6.396-.997 8.961-2.709 2.735 2.12 6.169 3.381 9.896 3.381h30.304c.568 0 1.13-.029 1.683-.086.554.057 1.115.086 1.683.086h91.578c2.597 0 6.185-.184 10.087-.924 1.688.598 3.507.924 5.401.924h28.957c6.778 0 16.676-.613 24.788-5.859 10.476-6.42 17.065-17.377 18.15-30.174.038-.304.071-.608.1-.916.059-.667.078-1.333.055-1.996.007-.251.01-.515.01-.792 0-5.649-1.2-11.462-3.365-16.565v-26.53c0-.335-.011-.67-.03-1.001v-1.022c-.003-8.93-7.242-16.168-16.172-16.168zm-235.928 43.787h4.784c-4.276 2.852-7.116 7.685-7.207 13.188l-4.692-5.396 7.115-7.792zm-63.689 0h20.47l6.692 7.33-7.143 7.47h-20.019v-14.8z"/><path fill="#202121" d="M474.607 359.057H37.393C16.775 359.057 0 342.282 0 321.661V38.336C0 17.716 16.775.942017 37.393.942017h437.212c20.619 0 37.393 16.774983 37.393 37.393983v31.459c0 4.466-3.618 8.084-8.084 8.084-4.466 0-8.084-3.618-8.084-8.084V38.336c0-11.704-9.522-21.226-21.225-21.226H37.393c-11.704 0-21.225 9.522-21.225 21.226v283.326c0 11.705 9.521 21.227 21.225 21.227h437.212c11.703 0 21.225-9.522 21.225-21.227V96.025c0-4.466 3.618-8.084 8.084-8.084 4.466 0 8.084 3.618 8.084 8.084v225.637c.002 20.62-16.772 37.395-37.391 37.395z"/><path fill="#202121" d="M28.922 321.661V38.336c0-16.188 13.124-29.31 29.311-29.31h-20.84c-16.187 0-29.30902 13.123-29.30902 29.31v283.326c0 16.188 13.12202 29.311 29.30902 29.311h20.84c-16.186 0-29.311-13.124-29.311-29.312z" opacity=".15"/><path fill="#fff" d="M80.318 145.858h14.816l-7.406-18.853-7.41 18.853zM159.106 209.156v8.755h24.915v9.43h-24.915v10.103h27.607l12.795-14.145-12.121-14.143h-28.281zM353.71 127.005l-8.081 18.853h15.491l-7.41-18.853zM231.158 242.826v-38.382l-17.51 18.855 17.51 19.527zM264.152 215.22c-.674-4.04-3.37-6.063-7.412-6.063h-14.138v12.121h14.815c4.04-.001 6.735-2.019 6.735-6.058zM311.286 219.933c1.347-.675 2.022-2.697 2.022-4.714.675-2.692-.675-4.04-2.022-4.715-1.343-.674-3.366-.674-5.384-.674h-13.469v10.776h13.469c2.018.001 4.041.001 5.384-.673z"/><path fill="#fff" d="M408.253 109.496v8.081l-4.039-8.081h-31.646v8.081l-4.042-8.081H325.43c-7.406 0-13.469 1.348-18.855 4.041v-4.041h-30.302v4.041c-3.366-2.693-7.405-4.041-12.794-4.041H155.066l-7.411 16.835-7.406-16.835h-34.344v8.081l-3.367-8.081H72.912l-13.469 31.648-15.486 34.342-.285.675H78.73l.244-.675 4.041-10.099h8.754l4.04 10.774h39.052v-8.08l3.371 8.08h19.526l3.366-8.08v8.08H254.726v-17.509h1.348c1.345 0 1.345 0 1.345 2.021v14.813h48.484v-4.04c4.041 2.023 10.098 4.04 18.18 4.04h20.203l4.04-10.771h9.425l4.04 10.771h39.055v-10.099l6.063 10.099H438.556v-65.991l-30.303.001zm-228.274 56.567H169.204v-37.038l-.675 1.545v-.018l-15.665 35.511h-9.923l-16.16-37.038v37.038h-22.894l-4.714-10.101H76.277l-4.715 10.101H59.726l19.922-47.137h16.833l18.853 45.115v-45.115h17.84l.317.675h.025l8.496 18.491 6.101 13.853.216-.698 13.467-32.321h18.183v47.137zm46.465-37.037H200.18v8.754h25.589v9.426H200.18v9.43h26.264v10.098h-37.709v-47.808h37.709v10.1zm48.03 17.363c.017.015.04.027.06.041.254.269.473.539.659.798 1.291 1.691 2.333 4.206 2.386 7.893.003.064.006.127.011.191 0 .037.005.069.005.107 0 .022-.002.038-.002.058.015.371.025.749.025 1.159v9.427h-10.099v-5.389c0-2.694 0-6.735-2.023-9.427-.636-.636-1.281-1.056-1.98-1.354-1.009-.653-2.923-.664-6.098-.664h-12.123v16.835h-11.446v-47.137h25.589c6.057 0 10.099 0 13.467 2.02 3.301 1.981 5.292 5.268 5.369 10.471-.156 7.166-4.756 11.098-8.063 12.424.001-.002 2.246.451 4.263 2.547zm22.676 19.674h-11.448v-47.137h11.448v47.137zm131.308 0h-14.817l-21.547-35.691v29.629l-.07-.071v6.161h-11.376v-.028h-11.447l-4.04-10.101h-23.57l-4.04 10.771h-12.795c-5.383 0-12.121-1.345-16.159-5.385-4.041-4.04-6.059-9.427-6.059-18.18 0-6.734 1.344-13.472 6.059-18.857 3.364-4.043 9.427-5.386 16.833-5.386h10.776v10.1H325.43c-4.04 0-6.058.672-8.756 2.695-2.018 2.019-3.365 6.059-3.365 10.771 0 5.388.675 8.755 3.365 11.447 2.024 2.023 4.716 2.697 8.081 2.697h4.714l15.487-37.035h16.835l18.857 45.115V119.6h16.833l19.525 32.994V119.6h11.452v46.463z"/><path fill="#fff" d="M264.87 138.559c.196-.21.376-.448.526-.721.61-.966 1.311-2.704.933-5.078-.016-.218-.055-.419-.101-.614-.013-.054-.011-.101-.026-.156l-.005.001c-.335-1.153-1.19-1.863-2.045-2.293-1.348-.672-3.37-.672-5.388-.672h-13.469v10.776h13.469c2.019 0 4.04 0 5.388-.675.203-.102.384-.243.556-.4l.003.009c.001-.003.068-.076.159-.177zM468.186 233.402c0-4.714-1.345-9.428-3.365-12.795v-30.301h-.03v-2.023h-32.425c-4.201 0-9.295 4.039-9.295 4.039v-4.039h-30.975c-4.715 0-10.771 1.348-13.469 4.039v-4.039h-55.214v4.039c-4.039-3.364-11.45-4.039-14.815-4.039h-36.363v4.039c-3.365-3.364-11.449-4.039-15.492-4.039h-40.398l-9.429 10.102-8.755-10.102H137.559v68.015h59.257l9.738-9.74 8.44 9.74H252.705V240.81h3.37c4.71 0 10.774 0 15.486-2.023v18.183h30.304v-17.509h1.343c2.022 0 2.022 0 2.022 2.02V256.97h91.578c6.064 0 12.121-1.35 15.488-4.043V256.971h28.957c6.058 0 12.123-.673 16.162-3.368 6.2-3.72 10.107-10.304 10.688-18.157.028-.233.063-.465.083-.698l-.04-.038c.021-.437.04-.869.04-1.308zm-212.114-4.039h-13.469v17.506H220.47l-12.882-14.816-.045.05-.628-.724-14.814 15.49h-43.096v-47.135h43.77l11.958 13.097 2.514 2.742.342-.354 14.142-15.486h35.688c6.928 0 14.683 1.71 17.622 8.757.352 1.396.558 2.947.558 4.709-.001 13.468-9.43 16.164-19.527 16.164zm67.338-.675c1.344 2.016 2.019 4.714 2.019 8.756v9.425h-11.446v-6.059c0-2.698 0-7.408-2.023-9.432-1.343-2.016-4.04-2.016-8.079-2.016h-12.12v17.506h-11.446v-47.81h25.587c5.384 0 10.098 0 13.469 2.018 3.365 2.022 6.058 5.389 6.058 10.777 0 7.405-4.713 11.446-8.081 12.795 3.369 1.342 5.389 2.693 6.062 4.04zm46.465-19.532H343.61v8.755h25.589v9.429H343.61v9.428h26.265v10.1h-37.709v-47.81h37.709v10.098zm28.281 37.712h-21.55v-10.1h21.55c2.016 0 3.366 0 4.715-1.348.674-.675 1.343-2.019 1.343-3.367 0-1.35-.669-2.69-1.343-3.365-.675-.673-2.024-1.347-4.043-1.347-10.775-.674-23.568 0-23.568-14.812 0-6.735 4.039-14.143 16.162-14.143h22.22v11.446H392.77c-2.019 0-3.368 0-4.716.674-1.343.675-1.343 2.023-1.343 3.368 0 2.021 1.343 2.695 2.69 3.363 1.35.675 2.694.675 4.04.675h6.061c6.06 0 10.1 1.347 12.794 4.041 2.021 2.021 3.368 5.388 3.368 10.101-.001 10.098-6.063 14.814-17.508 14.814zm57.909-4.716c-2.69 2.697-7.406 4.717-14.144 4.717h-21.542v-10.1h21.542c2.022 0 3.372 0 4.716-1.348.673-.675 1.347-2.019 1.347-3.367 0-1.35-.675-2.69-1.347-3.365-.674-.673-2.019-1.347-4.039-1.347-10.771-.674-23.568 0-23.568-14.812 0-6.401 3.661-12.181 12.691-13.898 1.081-.149 2.223-.246 3.471-.246h22.222v11.446h-20.875c-2.022 0-3.366 0-4.713.674-.677.675-1.352 2.023-1.352 3.368 0 2.021.675 2.695 2.698 3.363 1.344.675 2.691.675 4.04.675h6.057c2.943 0 5.169.363 7.206 1.079 1.864.675 8.039 3.437 9.421 10.646.12.756.207 1.544.207 2.417.001 4.041-1.346 7.408-4.038 10.098z"/></svg>