<svg xmlns="http://www.w3.org/2000/svg" fill="none" viewBox="0 0 80 56"><path fill="#78A1D1" d="M79 5v46c0 2.209-1.791 4-4 4H5c-2.209 0-4-1.791-4-4V5c0-2.209 1.791-4 4-4h70c2.209 0 4 1.791 4 4z"/><path fill="#E85654" d="M34.5 28c0-4.605 2.153-8.7 5.5-11.356-2.474-1.963-5.597-3.144-9-3.144-8.008 0-14.5 6.492-14.5 14.5S22.992 42.5 31 42.5c3.403 0 6.526-1.181 9-3.144C36.653 36.7 34.5 32.605 34.5 28z"/><path fill="#F9B621" d="M49 13.5c-3.403 0-6.526 1.181-9 3.144C43.347 19.3 45.5 23.395 45.5 28c0 4.605-2.153 8.7-5.5 11.356 2.474 1.963 5.597 3.144 9 3.144 8.008 0 14.5-6.492 14.5-14.5S57.008 13.5 49 13.5z"/><path fill="#F5905F" d="M40 39.356c3.0376 0 5.5-5.0843 5.5-11.356S43.0376 16.644 40 16.644 34.5 21.7283 34.5 28s2.4624 11.356 5.5 11.356z"/><path fill="#1F212B" d="M75 56H5c-2.757 0-5-2.243-5-5V5c0-2.757 2.243-5 5-5h70c2.757 0 5 2.243 5 5v46c0 2.757-2.243 5-5 5zM5 2C3.346 2 2 3.346 2 5v46c0 1.654 1.346 3 3 3h70c1.654 0 3-1.346 3-3V5c0-1.654-1.346-3-3-3H5z"/><path fill="#1F212B" d="M20.5 6h-1c-.276 0-.5-.224-.5-.5s.224-.5.5-.5h1c.276 0 .5.224.5.5s-.224.5-.5.5zM27.5 6h-4c-.276 0-.5-.224-.5-.5s.224-.5.5-.5h4c.276 0 .5.224.5.5s-.224.5-.5.5zM49.5 51h-40C7.019 51 5 48.981 5 46.5v-15c0-.276.224-.5.5-.5s.5.224.5.5v15C6 48.43 7.57 50 9.5 50h40c.276 0 .5.224.5.5s-.224.5-.5.5zM74.5 31c-.276 0-.5-.224-.5-.5v-21C74 7.57 72.43 6 70.5 6h-40c-.276 0-.5-.224-.5-.5s.224-.5.5-.5h40C72.981 5 75 7.019 75 9.5v21c0 .276-.224.5-.5.5zM63.5 51h-1c-.276 0-.5-.224-.5-.5s.224-.5.5-.5h1c.276 0 .5.224.5.5s-.224.5-.5.5zM59.5 51h-5c-.276 0-.5-.224-.5-.5s.224-.5.5-.5h5c.276 0 .5.224.5.5s-.224.5-.5.5z"/><path fill="#1F212B" d="M31 43c-8.271 0-15-6.729-15-15s6.729-15 15-15 15 6.729 15 15-6.729 15-15 15zm0-29c-7.72 0-14 6.28-14 14s6.28 14 14 14 14-6.28 14-14-6.28-14-14-14z"/><path fill="#1F212B" d="M49 43c-8.271 0-15-6.729-15-15s6.729-15 15-15 15 6.729 15 15-6.729 15-15 15zm0-29c-7.72 0-14 6.28-14 14s6.28 14 14 14 14-6.28 14-14-6.28-14-14-14z"/></svg>