<svg xmlns="http://www.w3.org/2000/svg" fill="none" viewBox="0 0 512 360"><path fill="#fff" d="M503.916 321.661c0 16.188-13.122 29.311-29.31 29.311H37.394c-16.188 0-29.31002-13.124-29.31002-29.311V38.336c0-16.188 13.12202-29.31 29.31002-29.31h437.211c16.189 0 29.31 13.123 29.31 29.31l.001 283.325z"/><path fill="#F79F1A" d="M118.136 181.969l-11.643-55.85c-1.99-7.702-7.78-9.993-15.016-10.296H38.098l-.475 2.551c41.573 10.08 69.082 34.394 80.513 63.595zM475.229 350.973H38.018c-16.188 0-29.30999-13.123-29.30999-29.31v-30.42H504.541v30.42c-.001 16.187-13.123 29.31-29.312 29.31z"/><path fill="#059BBF" d="M241.816 116.949h-34.488l-21.539 126.404h34.431l21.596-126.404zM139.155 243.225l54.242-126.191h-36.501l-33.742 86.216-3.601-13.018c-6.614-15.661-25.518-38.201-47.71-52.39l30.844 105.425 36.468-.042zm201.03-41.194c.129-14.352-9.086-25.297-28.943-34.339-12.068-5.84-19.424-9.733-19.336-15.66 0-5.235 6.229-10.859 19.725-10.859 11.293-.174 19.424 2.293 25.783 4.845l3.115 1.428 4.674-27.384c-6.836-2.554-17.521-5.278-30.888-5.278-34.046 0-58.012 17.132-58.229 41.704-.216 18.17 17.132 28.294 30.197 34.349 13.41 6.173 17.908 10.122 17.823 15.661-.086 8.466-10.686 12.327-20.592 12.327-13.8 0-21.112-1.902-32.451-6.627l-4.406-2.024-4.84 28.325c8.041 3.514 22.921 6.586 38.367 6.715 36.207 0 59.742-16.913 60.001-43.183zm40.966 22.375c3.938 0 39.108.043 44.127.043 1.038 4.401 4.196 18.947 4.196 18.947h31.969L433.54 117.078h-26.606c-8.263 0-14.404 2.25-18.04 10.467l-51.176 115.851h36.211c0 .001 5.882-15.571 7.222-18.99zm23.62-61.214c-.171.346 2.855-7.31 4.586-12.069l2.336 10.901s6.576 30.197 7.96 36.514h-28.595c2.856-7.269 13.713-35.346 13.713-35.346zM474.606 9.02499H37.394C21.206 9.02499 8.08398 22.148 8.08398 38.335v30.42H503.916v-30.42c0-16.186-13.121-29.31001-29.31-29.31001z"/><path fill="#202121" d="M28.923 321.661V38.336c0-16.188 13.122-29.31 29.31-29.31H37.394c-16.188 0-29.31002 13.123-29.31002 29.31v283.326c0 16.188 13.12202 29.311 29.31002 29.311h20.839c-16.188 0-29.31-13.124-29.31-29.312z" opacity=".15"/><path fill="#202121" d="M474.606 359.057H37.394C16.775 359.057 0 342.281 0 321.661V38.336C0 17.717 16.775.942017 37.394.942017h437.211c20.62 0 37.394 16.774983 37.394 37.393983v31.459c0 4.465-3.618 8.084-8.084 8.084H16.168v243.782c0 11.705 9.522 21.227 21.226 21.227h437.211c11.704 0 21.226-9.522 21.226-21.227V96.025c0-4.465 3.618-8.084 8.084-8.084 4.466 0 8.084 3.62 8.084 8.084v225.637c.001 20.619-16.773 37.395-37.393 37.395zM16.168 61.711h479.663V38.336c0-11.704-9.522-21.226-21.226-21.226H37.394c-11.704 0-21.226 9.522-21.226 21.226v23.375z"/><path fill="#202121" d="M220.22 251.438h-34.431c-2.382 0-4.643-1.051-6.177-2.869-1.536-1.821-2.191-4.225-1.791-6.573l21.538-126.405c.662-3.885 4.029-6.726 7.97-6.726h34.488c2.382 0 4.644 1.051 6.178 2.872 1.536 1.821 2.191 4.225 1.79 6.574l-21.597 126.404c-.663 3.882-4.029 6.723-7.968 6.723zm-24.853-16.169H213.4l18.834-110.236h-18.083l-18.784 110.236z"/><path fill="#202121" d="M200.149 112.587c-1.496-2.271-4.032-3.638-6.752-3.638h-36.501c-3.327 0-6.315 2.039-7.528 5.138l-24.222 61.892-10.738-51.509c-.026-.125-.055-.249-.087-.372-1.836-7.107-7.231-15.711-22.504-16.352-.113-.004-.226-.006-.338-.006H38.098c-3.893 0-7.234 2.775-7.947 6.602l-.476 2.551c-.787 4.224 1.867 8.327 6.043 9.339 10.152 2.461 19.59 5.898 28.17 10.187-.216 1.205-.163 2.467.196 3.694l30.844 105.425c1.009 3.446 4.169 5.814 7.759 5.814h.01l36.468-.042c3.227-.004 6.143-1.926 7.418-4.891l54.242-126.191c1.073-2.5.819-5.369-.676-7.641zM91.298 123.908c6.153.29 6.83 2.176 7.321 4.053l3.25 15.591c-7.757-7.554-16.819-14.157-26.984-19.644h16.413zm42.53 111.239l-25.086.028-22.052-75.376c12.059 11.415 21.261 24.052 25.218 33.117l3.455 12.49c.928 3.353 3.899 5.738 7.375 5.918 3.479.18 6.676-1.885 7.945-5.128l31.732-81.079h18.709l-47.296 110.03zm146.355 18.151h-.068c-15.248-.127-31.551-3.029-41.536-7.392-3.406-1.488-5.358-5.105-4.732-8.77l4.84-28.325c.424-2.477 1.974-4.616 4.197-5.788 2.223-1.171 4.865-1.243 7.146-.196l4.274 1.964c10.086 4.195 16.41 5.95 29.209 5.95 7.231 0 12.491-2.585 12.508-4.326.002-.146-.004-.202-.008-.213-.14-.392-1.438-2.647-13.113-8.022-8.721-4.042-35.202-16.318-34.899-41.789.258-29.248 27.527-49.692 66.313-49.692 15.055 0 26.646 3.149 33.717 5.789 3.636 1.358 5.794 5.108 5.142 8.934l-4.674 27.384c-.423 2.476-1.973 4.616-4.194 5.788-2.22 1.174-4.862 1.247-7.144.2l-2.934-1.345c-5.112-2.039-12.313-4.341-22.472-4.194-.041 0-.083.001-.124.001-7.135 0-10.416 1.888-11.405 2.826 2.026 2.268 9.976 6.124 14.453 8.29 22.76 10.386 33.748 24.036 33.588 41.729-.152 15.348-7.212 28.816-19.883 37.932-12.059 8.679-28.727 13.265-48.201 13.265zm-29.249-20.158c7.297 2.092 17.943 3.891 29.282 3.989 31.79-.01 51.672-13.488 51.886-35.179.066-7.359-2.626-17.074-24.208-26.901-.057-.026-.114-.053-.171-.08-12.893-6.24-24.03-11.63-23.898-23.002.041-9.095 8.73-18.857 27.747-18.878 9.44-.138 16.832 1.372 22.663 3.198l1.817-10.65c-5.365-1.424-12.802-2.77-21.736-2.77-29.35 0-49.97 13.854-50.145 33.691-.124 10.405 7.744 18.708 25.513 26.943 11.954 5.503 22.686 11.42 22.506 23.12-.121 11.927-11.913 20.287-28.675 20.287-13.204 0-21.207-1.708-30.615-5.273l-1.966 11.505z"/><path fill="#202121" d="M461.464 251.482h-31.991c-3.804 0-7.094-2.652-7.9-6.369-.022-.099-1.505-6.933-2.759-12.583-4.807-.004-11.433-.012-17.81-.018-5.35-.006-10.523-.012-14.297-.016-2.178 5.719-5.174 13.647-5.216 13.759-1.188 3.145-4.199 5.228-7.563 5.228h-36.211c-2.734 0-5.281-1.381-6.773-3.671-1.492-2.289-1.726-5.179-.621-7.679l51.176-115.851c6.762-15.286 20.817-15.286 25.435-15.286h26.606c3.792 0 7.075 2.637 7.893 6.34l27.773 125.726c.223.741.342 1.524.342 2.337 0 4.463-3.619 8.083-8.084 8.083zm-25.48-16.169h15.393l-24.331-110.15h-20.111c-6.927 0-8.952 1.823-10.647 5.655l-46.159 104.495h18.215c1.844-4.872 4.43-11.688 5.281-13.856 1.214-3.098 4.201-5.135 7.526-5.135 1.851 0 10.596.01 19.871.02 10.461.011 21.596.024 24.256.024 3.749 0 7.007 2.579 7.869 6.228.595 2.527 1.848 8.205 2.837 12.719zm-16.33-28.691h-28.595c-2.673 0-5.175-1.323-6.681-3.531-1.505-2.211-1.821-5.021-.843-7.51 2.817-7.166 13.589-35.024 13.698-35.304l.031.013c.245-.764.545-1.54.856-2.341.964-2.49 2.576-6.657 3.641-9.588 1.231-3.388 4.552-5.545 8.153-5.302 3.596.248 6.593 2.847 7.349 6.371l2.336 10.901c0 .003 6.569 30.165 7.952 36.477.524 2.392-.065 4.891-1.597 6.798-1.536 1.907-3.853 3.016-6.3 3.016zm-16.773-16.169h6.731c-.757-3.474-1.608-7.383-2.422-11.116-1.4 3.618-2.916 7.529-4.309 11.116zm98.445 107.515H10.674c-4.465 0-8.084-3.618-8.084-8.084 0-4.466 3.62-8.084 8.084-8.084h490.651c4.465 0 8.084 3.618 8.084 8.084.001 4.465-3.618 8.084-8.083 8.084z"/></svg>